<mxfile host="app.diagrams.net" agent="Mozilla/5.0 (X11; Linux x86_64) AppleWebKit/537.36 (KHTML, like Gecko) Chrome/133.0.0.0 Safari/537.36" version="26.0.11">
  <diagram name="Page-1" id="4LFkIuysyY7Iyn4biDlh">
    <mxGraphModel dx="714" dy="728" grid="1" gridSize="10" guides="1" tooltips="1" connect="1" arrows="1" fold="1" page="1" pageScale="1" pageWidth="850" pageHeight="1100" math="0" shadow="0">
      <root>
        <mxCell id="0" />
        <mxCell id="1" parent="0" />
        <mxCell id="U_aBWSmxGnnpZ1uZLiR3-2" value="Persistence Layer" style="whiteSpace=wrap;strokeWidth=2;labelBackgroundColor=none;fillColor=#A8DADC;strokeColor=#457B9D;fontColor=#1D3557;align=left;verticalAlign=top;" vertex="1" parent="1">
          <mxGeometry x="90" y="495" width="300" height="104" as="geometry" />
        </mxCell>
        <mxCell id="U_aBWSmxGnnpZ1uZLiR3-3" value="Business Logic Layer" style="whiteSpace=wrap;strokeWidth=2;align=left;verticalAlign=top;labelBackgroundColor=none;fillColor=#A8DADC;strokeColor=#457B9D;fontColor=#1D3557;" vertex="1" parent="1">
          <mxGeometry x="90" y="195" width="306" height="229" as="geometry" />
        </mxCell>
        <mxCell id="U_aBWSmxGnnpZ1uZLiR3-4" value="Presentation Layer" style="whiteSpace=wrap;strokeWidth=2;labelBackgroundColor=none;fillColor=#A8DADC;strokeColor=#457B9D;fontColor=#1D3557;align=left;verticalAlign=top;" vertex="1" parent="1">
          <mxGeometry x="122" y="20" width="239" height="104" as="geometry" />
        </mxCell>
        <mxCell id="U_aBWSmxGnnpZ1uZLiR3-5" value="API Endpoints" style="whiteSpace=wrap;strokeWidth=2;labelBackgroundColor=none;fillColor=#A8DADC;strokeColor=#457B9D;fontColor=#1D3557;" vertex="1" parent="1">
          <mxGeometry x="165" y="45" width="161" height="54" as="geometry" />
        </mxCell>
        <mxCell id="U_aBWSmxGnnpZ1uZLiR3-6" value="Facade Interface" style="whiteSpace=wrap;strokeWidth=2;labelBackgroundColor=none;fillColor=#A8DADC;strokeColor=#457B9D;fontColor=#1D3557;" vertex="1" parent="1">
          <mxGeometry x="155" y="220" width="180" height="54" as="geometry" />
        </mxCell>
        <mxCell id="U_aBWSmxGnnpZ1uZLiR3-7" value="Core Business Logic" style="whiteSpace=wrap;strokeWidth=2;labelBackgroundColor=none;fillColor=#A8DADC;strokeColor=#457B9D;fontColor=#1D3557;" vertex="1" parent="1">
          <mxGeometry x="142" y="345" width="207" height="54" as="geometry" />
        </mxCell>
        <mxCell id="U_aBWSmxGnnpZ1uZLiR3-8" value="Database Integration" style="whiteSpace=wrap;strokeWidth=2;labelBackgroundColor=none;fillColor=#A8DADC;strokeColor=#457B9D;fontColor=#1D3557;" vertex="1" parent="1">
          <mxGeometry x="141" y="520" width="209" height="54" as="geometry" />
        </mxCell>
        <mxCell id="U_aBWSmxGnnpZ1uZLiR3-9" value="Request" style="curved=1;startArrow=none;endArrow=block;exitX=0.35;exitY=1;entryX=0.37;entryY=0;rounded=0;labelBackgroundColor=none;strokeColor=#457B9D;fontColor=default;" edge="1" parent="1" source="U_aBWSmxGnnpZ1uZLiR3-5" target="U_aBWSmxGnnpZ1uZLiR3-6">
          <mxGeometry relative="1" as="geometry">
            <Array as="points">
              <mxPoint x="200" y="124" />
              <mxPoint x="200" y="195" />
            </Array>
          </mxGeometry>
        </mxCell>
        <mxCell id="U_aBWSmxGnnpZ1uZLiR3-10" value="Delegates to" style="curved=1;startArrow=none;endArrow=block;exitX=0.38;exitY=1;entryX=0.39;entryY=0;rounded=0;labelBackgroundColor=none;strokeColor=#457B9D;fontColor=default;" edge="1" parent="1" source="U_aBWSmxGnnpZ1uZLiR3-6" target="U_aBWSmxGnnpZ1uZLiR3-7">
          <mxGeometry relative="1" as="geometry">
            <Array as="points">
              <mxPoint x="193" y="310" />
            </Array>
          </mxGeometry>
        </mxCell>
        <mxCell id="U_aBWSmxGnnpZ1uZLiR3-11" value="Queries/Commands" style="curved=1;startArrow=none;endArrow=block;exitX=0.33;exitY=1;entryX=0.34;entryY=0;rounded=0;labelBackgroundColor=none;strokeColor=#457B9D;fontColor=default;" edge="1" parent="1" source="U_aBWSmxGnnpZ1uZLiR3-7" target="U_aBWSmxGnnpZ1uZLiR3-8">
          <mxGeometry relative="1" as="geometry">
            <Array as="points">
              <mxPoint x="180" y="424" />
              <mxPoint x="180" y="495" />
            </Array>
          </mxGeometry>
        </mxCell>
        <mxCell id="U_aBWSmxGnnpZ1uZLiR3-12" value="Response" style="curved=1;startArrow=none;endArrow=block;exitX=0.66;exitY=0;entryX=0.66;entryY=1;rounded=0;labelBackgroundColor=none;strokeColor=#457B9D;fontColor=default;" edge="1" parent="1" source="U_aBWSmxGnnpZ1uZLiR3-8" target="U_aBWSmxGnnpZ1uZLiR3-7">
          <mxGeometry relative="1" as="geometry">
            <Array as="points">
              <mxPoint x="311" y="495" />
              <mxPoint x="311" y="424" />
            </Array>
          </mxGeometry>
        </mxCell>
        <mxCell id="U_aBWSmxGnnpZ1uZLiR3-13" value="Response" style="curved=1;startArrow=none;endArrow=block;exitX=0.61;exitY=0;entryX=0.63;entryY=1;rounded=0;labelBackgroundColor=none;strokeColor=#457B9D;fontColor=default;" edge="1" parent="1" source="U_aBWSmxGnnpZ1uZLiR3-7" target="U_aBWSmxGnnpZ1uZLiR3-6">
          <mxGeometry relative="1" as="geometry">
            <Array as="points">
              <mxPoint x="298" y="310" />
            </Array>
          </mxGeometry>
        </mxCell>
        <mxCell id="U_aBWSmxGnnpZ1uZLiR3-14" value="Response" style="curved=1;startArrow=none;endArrow=block;exitX=0.64;exitY=0;entryX=0.65;entryY=1;rounded=0;labelBackgroundColor=none;strokeColor=#457B9D;fontColor=default;" edge="1" parent="1" source="U_aBWSmxGnnpZ1uZLiR3-6" target="U_aBWSmxGnnpZ1uZLiR3-5">
          <mxGeometry relative="1" as="geometry">
            <Array as="points">
              <mxPoint x="293" y="195" />
              <mxPoint x="293" y="124" />
            </Array>
          </mxGeometry>
        </mxCell>
      </root>
    </mxGraphModel>
  </diagram>
</mxfile>
